# xmcd
#
# Track frame offsets:
#	150
#	112454
#	135015
#	176551
#
# Disc length: 3039 seconds
#
# Revision: 1
# Processed by: cddbd v1.5.2PL0 Copyright (c) Steve Scherf et al.
# Submitted via: audiograbber 1.83.01
#
DISCID=300bdd04
DTITLE=Grateful Dead - 69-04-13 Ballroom, Uni of Colorado, Boulder CO
DYEAR=1900
DGENRE=
TTITLE0=Turn On Your Lovelight
TTITLE1=Doin' That Rag
TTITLE2=Good Morning Little Schoolgirl
TTITLE3=Morning Dew
EXTD=
EXTT0=
EXTT1=
EXTT2=
EXTT3=
PLAYORDER=
